<svg width="28" height="28" viewBox="0 0 28 28" fill="none" xmlns="http://www.w3.org/2000/svg">
<rect x="1" y="1" width="26" height="26" rx="13" stroke="#1362E2" stroke-opacity="0.4" stroke-width="2"/>
<path d="M11.4317 18.7143C11.1743 18.7098 10.9211 18.6473 10.6911 18.5316C10.4611 18.4159 10.2601 18.2498 10.1031 18.0457L8.21741 15.9114C8.14191 15.8268 8.08396 15.728 8.04694 15.6207C8.00991 15.5135 7.99454 15.4 8.00172 15.2868C8.00889 15.1735 8.03847 15.0629 8.08874 14.9612C8.13901 14.8595 8.20896 14.7688 8.29455 14.6943C8.46623 14.5455 8.68996 14.471 8.91658 14.487C9.1432 14.5031 9.35416 14.6085 9.50312 14.78L11.2688 16.7772C11.286 16.8019 11.3092 16.8219 11.3361 16.8354C11.3631 16.8489 11.393 16.8554 11.4231 16.8543C11.4523 16.855 11.4813 16.8492 11.508 16.8374C11.5347 16.8255 11.5584 16.8079 11.5774 16.7857L18.5288 9.55143C18.6897 9.40677 18.8993 9.32829 19.1156 9.33171C19.3319 9.33514 19.5389 9.42023 19.6951 9.5699C19.8512 9.71958 19.9451 9.92277 19.9577 10.1387C19.9703 10.3547 19.9008 10.5674 19.7631 10.7343L12.7346 18.1314C12.5743 18.3192 12.3742 18.469 12.1488 18.5698C11.9235 18.6706 11.6785 18.72 11.4317 18.7143Z" fill="#1362E2"/>
</svg>
