<svg width="166" height="30" viewBox="0 0 166 30" fill="none" xmlns="http://www.w3.org/2000/svg">
<path fill-rule="evenodd" clip-rule="evenodd" d="M0 0.215179H6.28944V11.7754H17.2701V0.215179H23.7142V29.1157H17.4248V16.4813H6.34099V29.1668H0V0.215179ZM95.0625 0.215179H101.094V29.1158H95.0625V0.215179ZM165.846 0.26604H159.814C159.814 3.94894 159.814 7.683 159.763 11.417C158.938 10.1894 157.649 9.31983 156.257 8.96177C153.679 8.24566 150.895 8.80832 148.73 10.394C146.977 11.8774 145.74 13.9234 145.328 16.1741C144.864 18.3225 144.864 20.5732 145.328 22.7727C145.74 24.921 146.926 26.8647 148.678 28.1436C150.534 29.32 152.752 29.7804 154.917 29.4735C156.978 29.2688 158.783 28.0924 159.763 26.251C159.763 26.8967 159.808 27.5424 159.854 28.1882C159.877 28.5143 159.9 28.8404 159.917 29.1665H166C165.897 27.7855 165.846 26.3533 165.846 24.9721V0.26604ZM151.72 15.458C152.132 14.2304 153.112 13.0028 154.504 12.6958C155.896 12.2866 157.391 12.6958 158.422 13.7189C159.505 14.793 159.866 16.3788 159.969 17.8621C160.02 19.8058 159.866 21.8008 158.938 23.5399C157.906 25.3302 155.38 26.251 153.473 25.2279C152.081 24.4606 151.514 22.8238 151.256 21.3404C150.947 19.3455 151.102 17.3506 151.72 15.458ZM82.2263 5.0736L88.2064 2.92524V9.01226H93.0524V13.0021H88.2064V20.2655C88.1548 21.3909 88.2064 22.5162 88.361 23.6415C88.4642 24.2553 88.9797 24.7669 89.5983 24.9204C90.7325 25.1249 91.8666 25.1249 93.0008 24.9715V28.859C90.8872 29.4728 88.6704 29.6263 86.5052 29.3705C85.2679 29.217 84.0822 28.6544 83.2574 27.7336C82.5357 26.7617 82.2263 25.5853 82.2779 24.4088C82.2263 17.9638 82.2263 11.5187 82.2263 5.0736ZM41.5 9.88327C39.2832 8.45104 36.6025 7.88837 34.0248 8.39989C31.5504 8.8091 29.3852 10.139 27.9932 12.2363C26.2919 14.6404 25.8796 17.6583 25.9827 20.5228C26.1372 22.978 26.8591 25.6891 28.6118 27.4794C30.3647 29.2696 32.9422 29.8835 35.3652 29.9858C37.4789 30.088 39.6441 29.6277 41.5515 28.707C43.5622 27.5816 44.8509 25.4844 44.954 23.1827H39.4379C39.2832 23.8988 38.8708 24.5637 38.3553 25.1263C37.7367 25.6379 36.9634 25.9448 36.19 25.9448C34.9012 26.0982 33.664 25.6379 32.7876 24.666C31.8596 23.4895 31.6534 21.955 31.7049 20.5739H45.418C45.5727 18.6813 45.3665 16.7887 44.9025 14.9472C44.387 12.9012 43.2013 11.1109 41.5 9.88327ZM31.9112 16.7887C31.9112 15.5611 32.3236 14.3846 33.0969 13.4127C34.4889 11.827 37.4789 11.9293 38.5615 13.7708C39.0771 14.6915 39.2832 15.7657 39.2832 16.7887H31.9112ZM49.6978 10.4464C51.5021 8.86074 54.0282 8.40038 56.3481 8.34922C58.668 8.29808 61.2456 8.75843 63.153 10.293C64.5449 11.4183 65.1121 13.2597 65.2152 14.9989C65.274 16.2259 65.2657 17.4361 65.2573 18.6488V18.6489V18.6489V18.6494C65.2509 19.5599 65.2446 20.4717 65.2668 21.3928C65.2764 21.8737 65.2807 22.3582 65.2849 22.8446C65.3032 24.9452 65.3218 27.0815 65.7822 29.1167H60.2661C60.1114 28.2471 60.0599 27.3263 60.0599 26.4056C58.9772 28.0936 57.1729 29.219 55.1624 29.4748C53.5127 29.6794 51.8115 29.4748 50.2133 28.861C48.8214 28.1959 47.7388 26.9683 47.3264 25.4338C46.7077 23.4389 47.0686 21.2906 48.2543 19.6026C49.44 18.1191 51.0382 17.0962 52.8941 16.6357C54.8754 16.1208 56.9 16.0771 58.8887 16.0342C59.0732 16.0302 59.2574 16.0262 59.4413 16.0219C59.4413 15.937 59.4416 15.8517 59.442 15.7662C59.4459 14.8216 59.45 13.8483 58.9772 13.004C58.0493 11.6741 56.245 11.3671 54.9046 12.2879C54.7499 12.3902 54.6468 12.4925 54.5437 12.5948C54.0282 13.1574 53.7704 13.9247 53.8736 14.692H47.945C47.8934 13.1574 48.5121 11.5718 49.6978 10.4464ZM55.0593 20.1652C54.286 20.421 53.6158 20.9836 53.2034 21.6997C52.6363 22.9274 52.9972 24.3596 54.0798 25.178C55.5748 26.1499 57.5854 25.7407 58.5649 24.2573C59.4928 22.8762 59.4928 21.1883 59.4928 19.6026C57.9978 19.4491 56.4512 19.6026 55.0593 20.1652ZM112.386 8.34739C110.014 8.34739 107.488 8.80775 105.683 10.3935C104.498 11.5188 103.828 13.1045 103.879 14.7413H109.808C109.705 13.9229 110.066 13.0533 110.685 12.4906C111.922 11.5188 113.674 11.6722 114.757 12.7976C115.434 13.6615 115.431 14.8408 115.428 15.9127C115.428 15.9831 115.427 16.053 115.427 16.1224C113.107 16.1224 110.788 16.1735 108.571 16.7873C106.818 17.2478 105.22 18.2708 104.138 19.7542C102.848 21.6468 102.642 23.9997 103.518 26.0969C104.085 27.478 105.168 28.5521 106.56 29.0637C108.107 29.524 109.705 29.6775 111.303 29.4729C113.261 29.2684 114.964 27.9384 116.046 26.4038C116.046 27.3246 116.098 28.1941 116.252 29.1149H121.716C121.193 26.7553 121.197 24.2651 121.2 21.8451C121.201 21.6421 121.201 21.4395 121.201 21.2375V21.2366C121.201 19.1397 121.201 16.9917 121.149 14.8437C120.995 13.2068 120.48 11.4165 119.139 10.3423C117.283 8.80775 114.757 8.34739 112.386 8.34739ZM109.344 21.391C109.808 20.7261 110.529 20.2656 111.355 20.0099C112.694 19.6007 114.087 19.4984 115.427 19.6007L115.428 19.8254C115.43 21.3492 115.432 22.9905 114.499 24.3066C113.52 25.7389 111.56 26.148 110.066 25.2273C108.828 24.3577 108.519 22.6697 109.344 21.391ZM132.078 9.26958C133.882 8.34886 135.996 8.09311 137.956 8.55346C139.862 8.91153 141.461 10.1903 142.235 11.9806C142.764 13.1932 142.811 14.5017 142.858 15.8051V15.8053C142.87 16.1512 142.883 16.4967 142.904 16.8399V29.1162H136.719V15.6634C136.719 14.5382 136.048 13.5151 135.017 12.9525C133.212 12.1341 131.099 12.8502 130.171 14.5893C129.679 15.6099 129.691 16.7461 129.703 17.8307L129.703 17.8343C129.705 17.9987 129.707 18.1619 129.707 18.3233V29.0651H123.623V15.9192C123.623 15.4484 123.626 14.9756 123.628 14.5011C123.636 12.6042 123.644 10.6812 123.52 8.75807H129.295L129.328 9.38662C129.368 10.151 129.409 10.9222 129.449 11.7248C130.068 10.7529 130.996 9.8834 132.078 9.26958ZM80.474 8.80867C78.9275 8.65522 77.3809 8.96212 75.9889 9.67825C74.8548 10.3944 74.0299 11.4174 73.5145 12.7473C73.5145 11.4714 73.4631 10.1956 73.4117 8.91967L73.4114 8.91098H67.7405C67.9983 11.4174 68.1014 13.9749 68.0499 16.4814C68.0499 17.8966 68.0441 19.3118 68.0384 20.727C68.0269 23.5573 68.0155 26.3877 68.0499 29.2181H74.0299V18.7321C74.0299 17.4021 74.3393 15.8675 75.4735 15.0491C76.917 14.0261 78.7728 14.0261 80.474 14.1795V8.80867Z" fill="#33393D"/>
</svg>
